<svg width="15" height="20" viewBox="0 0 15 20" fill="none" xmlns="http://www.w3.org/2000/svg">
<path d="M15 13.5714C15 17.1217 11.642 20 7.5 20C3.35795 20 0 17.1217 0 13.5714C0 10.021 7.5 0 7.5 0C7.5 0 15 10.021 15 13.5714Z" fill="#60A2D7"/>
<path d="M5.41819 16.8964C5.26214 16.8963 5.11932 16.824 5.04811 16.7094C4.9767 16.5946 4.98891 16.4563 5.07944 16.3513L9.24612 11.5237C9.37979 11.3686 9.64 11.3327 9.82738 11.4434C10.0148 11.554 10.0581 11.7693 9.92443 11.9244L5.75775 16.752C5.67942 16.8427 5.55288 16.8966 5.41819 16.8964Z" fill="#A3D4F7"/>
<path d="M5.41699 14.1379C4.71611 14.1379 4.16699 13.5321 4.16699 12.7586C4.16699 11.9851 4.71611 11.3793 5.41699 11.3793C6.11788 11.3793 6.66699 11.9851 6.66699 12.7586C6.66699 13.5321 6.11788 14.1379 5.41699 14.1379ZM5.41699 12.0689C5.24691 12.0689 5.00033 12.3375 5.00033 12.7586C5.00033 13.1797 5.24691 13.4482 5.41699 13.4482C5.58708 13.4482 5.83366 13.1797 5.83366 12.7586C5.83366 12.3375 5.58708 12.0689 5.41699 12.0689Z" fill="#A3D4F7"/>
<path d="M9.584 16.8965C8.8831 16.8965 8.33398 16.2907 8.33398 15.5172C8.33398 14.7437 8.8831 14.1379 9.584 14.1379C10.2849 14.1379 10.834 14.7437 10.834 15.5172C10.834 16.2907 10.2849 16.8965 9.584 16.8965ZM9.584 14.8276C9.41391 14.8276 9.16733 15.0961 9.16733 15.5172C9.16733 15.9383 9.41391 16.2069 9.584 16.2069C9.75408 16.2069 10.0007 15.9383 10.0007 15.5172C10.0007 15.0961 9.75408 14.8276 9.584 14.8276Z" fill="#A3D4F7"/>
</svg>
