<svg width="30" height="30" viewBox="0 0 30 30" fill="none" xmlns="http://www.w3.org/2000/svg">
<path fill-rule="evenodd" clip-rule="evenodd" d="M13.2937 28.7571C14.1939 28.7571 15.0016 27.574 15.0016 26.0257V25.4043H16.1463V26.0257C16.1463 28.1935 14.9131 30 13.2937 30H2.85261C1.23949 30 0 28.1812 0 26.0257V3.97427C0 1.80646 1.2332 0 2.85261 0H13.2937C14.9068 0 16.1463 1.81878 16.1463 3.97427V4.59572H15.0016V3.97427C15.0016 2.43804 14.1871 1.2429 13.2937 1.2429H2.85261C1.95238 1.2429 1.14473 2.42599 1.14473 3.97427V26.0257C1.14473 27.562 1.95922 28.7571 2.85261 28.7571H13.2937ZM21.2634 7.27184L27.0148 13.5165H9.14868V14.7594H28.1596L28.3811 14.9999L21.2634 22.7281L22.0729 23.6069L29.1905 15.8788L30 14.9999L29.1905 14.1211L22.0729 6.39297L21.2634 7.27184Z" fill="white"/>
</svg>
