<svg width="30" height="31" viewBox="0 0 30 31" fill="none" xmlns="http://www.w3.org/2000/svg">
<path d="M29.9994 1.87731C29.9994 0.605257 28.7631 -0.291212 27.5619 0.0896406L8.8125 5.62666C8.0332 5.87274 7.5 6.59344 7.5 7.41373V22.7311C6.91113 22.5916 6.28594 22.5014 5.625 22.5014C2.51836 22.5014 0 24.18 0 26.2513C0 28.3226 2.51836 30.0012 5.625 30.0012C8.73164 30.0012 11.25 28.3226 11.25 26.2513V12.5588L26.25 8.16314V18.9811C25.6611 18.8417 25.0359 18.7514 24.375 18.7514C21.2684 18.7514 18.75 20.4301 18.75 22.5014C18.75 24.5726 21.2684 26.2513 24.375 26.2513C27.4816 26.2513 30 24.5726 30 22.5014L29.9994 1.87731Z" fill="white"/>
</svg>
