<svg width="32" height="32" viewBox="0 0 32 32" fill="none" xmlns="http://www.w3.org/2000/svg">
<mask id="path-1-outside-1" maskUnits="userSpaceOnUse" x="0" y="0" width="32" height="32" fill="black">
<rect fill="white" width="32" height="32"/>
<path d="M29.75 1H5.58333C4.89297 1 4.33333 1.83945 4.33333 2.875V3.5H2.25C1.55964 3.5 1 4.33945 1 5.375V26.625C1 29.0412 2.30583 31 3.91667 31H28.5C29.8807 31 31 29.3211 31 27.25V2.875C31 1.83945 30.4404 1 29.75 1ZM3.91667 27.25C3.80616 27.25 3.70018 27.1842 3.62204 27.0669C3.5439 26.9497 3.5 26.7908 3.5 26.625V7.25H4.33333V26.625C4.33333 26.7908 4.28943 26.9497 4.21129 27.0669C4.13315 27.1842 4.02717 27.25 3.91667 27.25ZM16.2083 26H8.29167C7.94651 26 7.66667 25.5802 7.66667 25.0625V24.4375C7.66667 23.9198 7.94651 23.5 8.29167 23.5H16.2083C16.5535 23.5 16.8333 23.9198 16.8333 24.4375V25.0625C16.8333 25.5802 16.5535 26 16.2083 26ZM27.0417 26H19.125C18.7798 26 18.5 25.5802 18.5 25.0625V24.4375C18.5 23.9198 18.7798 23.5 19.125 23.5H27.0417C27.3868 23.5 27.6667 23.9198 27.6667 24.4375V25.0625C27.6667 25.5802 27.3868 26 27.0417 26ZM16.2083 18.5H8.29167C7.94651 18.5 7.66667 18.0802 7.66667 17.5625V16.9375C7.66667 16.4198 7.94651 16 8.29167 16H16.2083C16.5535 16 16.8333 16.4198 16.8333 16.9375V17.5625C16.8333 18.0802 16.5535 18.5 16.2083 18.5ZM27.0417 18.5H19.125C18.7798 18.5 18.5 18.0802 18.5 17.5625V16.9375C18.5 16.4198 18.7798 16 19.125 16H27.0417C27.3868 16 27.6667 16.4198 27.6667 16.9375V17.5625C27.6667 18.0802 27.3868 18.5 27.0417 18.5ZM27.0417 11H8.29167C7.94651 11 7.66667 10.5802 7.66667 10.0625V6.9375C7.66667 6.41976 7.94651 6 8.29167 6H27.0417C27.3868 6 27.6667 6.41976 27.6667 6.9375V10.0625C27.6667 10.5802 27.3868 11 27.0417 11Z"/>
</mask>
<path d="M4.33333 3.5V4.5H5.33333V3.5H4.33333ZM3.5 7.25V6.25H2.5V7.25H3.5ZM4.33333 7.25H5.33333V6.25H4.33333V7.25ZM29.75 0H5.58333V2H29.75V0ZM5.58333 0C4.79978 0 4.2128 0.476371 3.8674 0.99447C3.51734 1.51955 3.33333 2.18734 3.33333 2.875H5.33333C5.33333 2.52711 5.42914 2.2574 5.5315 2.10387C5.63851 1.94336 5.67653 2 5.58333 2V0ZM3.33333 2.875V3.5H5.33333V2.875H3.33333ZM4.33333 2.5H2.25V4.5H4.33333V2.5ZM2.25 2.5C1.46644 2.5 0.879462 2.97637 0.534063 3.49447C0.184007 4.01955 0 4.68734 0 5.375H2C2 5.02711 2.09581 4.7574 2.19816 4.60387C2.30517 4.44336 2.34319 4.5 2.25 4.5V2.5ZM0 5.375V26.625H2V5.375H0ZM0 26.625C0 28.003 0.370559 29.2958 1.02222 30.2733C1.66922 31.2438 2.67287 32 3.91667 32V30C3.54963 30 3.09494 29.7768 2.68632 29.1639C2.28236 28.5579 2 27.6632 2 26.625H0ZM3.91667 32H28.5V30H3.91667V32ZM28.5 32C29.6287 32 30.5282 31.3138 31.0998 30.4564C31.6761 29.592 32 28.4554 32 27.25H30C30 28.1157 29.7643 28.8541 29.4357 29.347C29.1025 29.8468 28.752 30 28.5 30V32ZM32 27.25V2.875H30V27.25H32ZM32 2.875C32 2.18734 31.816 1.51955 31.4659 0.99447C31.1205 0.476371 30.5336 0 29.75 0V2C29.6568 2 29.6948 1.94336 29.8018 2.10387C29.9042 2.2574 30 2.52711 30 2.875H32ZM3.91667 26.25C4.23218 26.25 4.40414 26.4373 4.45409 26.5122L2.78999 27.6216C2.99622 27.931 3.38014 28.25 3.91667 28.25V26.25ZM4.45409 26.5122C4.48159 26.5535 4.49192 26.5845 4.49564 26.598C4.49963 26.6125 4.5 26.621 4.5 26.625H2.5C2.5 26.9526 2.58412 27.3128 2.78999 27.6216L4.45409 26.5122ZM4.5 26.625V7.25H2.5V26.625H4.5ZM3.5 8.25H4.33333V6.25H3.5V8.25ZM3.33333 7.25V26.625H5.33333V7.25H3.33333ZM3.33333 26.625C3.33333 26.621 3.3337 26.6125 3.33769 26.598C3.34141 26.5845 3.35174 26.5535 3.37924 26.5122L5.04334 27.6216C5.24921 27.3128 5.33333 26.9526 5.33333 26.625H3.33333ZM3.37924 26.5122C3.42919 26.4373 3.60116 26.25 3.91667 26.25V28.25C4.45319 28.25 4.83711 27.931 5.04334 27.6216L3.37924 26.5122ZM16.2083 25H8.29167V27H16.2083V25ZM8.29167 25C8.55751 25 8.67573 25.1616 8.68178 25.1707C8.69251 25.1868 8.66667 25.1514 8.66667 25.0625H6.66667C6.66667 25.4913 6.78074 25.9247 7.01768 26.2801C7.24995 26.6285 7.68067 27 8.29167 27V25ZM8.66667 25.0625V24.4375H6.66667V25.0625H8.66667ZM8.66667 24.4375C8.66667 24.3485 8.69251 24.3132 8.68178 24.3293C8.67573 24.3384 8.55751 24.5 8.29167 24.5V22.5C7.68067 22.5 7.24995 22.8715 7.01768 23.2199C6.78074 23.5753 6.66667 24.0087 6.66667 24.4375H8.66667ZM8.29167 24.5H16.2083V22.5H8.29167V24.5ZM16.2083 24.5C15.9425 24.5 15.8243 24.3384 15.8182 24.3293C15.8075 24.3132 15.8333 24.3485 15.8333 24.4375H17.8333C17.8333 24.0087 17.7193 23.5753 17.4823 23.2199C17.2501 22.8715 16.8193 22.5 16.2083 22.5V24.5ZM15.8333 24.4375V25.0625H17.8333V24.4375H15.8333ZM15.8333 25.0625C15.8333 25.1514 15.8075 25.1868 15.8182 25.1707C15.8243 25.1616 15.9425 25 16.2083 25V27C16.8193 27 17.2501 26.6285 17.4823 26.2801C17.7193 25.9247 17.8333 25.4913 17.8333 25.0625H15.8333ZM27.0417 25H19.125V27H27.0417V25ZM19.125 25C19.3908 25 19.5091 25.1616 19.5151 25.1707C19.5258 25.1868 19.5 25.1514 19.5 25.0625H17.5C17.5 25.4913 17.6141 25.9247 17.851 26.2801C18.0833 26.6285 18.514 27 19.125 27V25ZM19.5 25.0625V24.4375H17.5V25.0625H19.5ZM19.5 24.4375C19.5 24.3485 19.5258 24.3132 19.5151 24.3293C19.5091 24.3384 19.3908 24.5 19.125 24.5V22.5C18.514 22.5 18.0833 22.8715 17.851 23.2199C17.6141 23.5753 17.5 24.0087 17.5 24.4375H19.5ZM19.125 24.5H27.0417V22.5H19.125V24.5ZM27.0417 24.5C26.7758 24.5 26.6576 24.3384 26.6516 24.3293C26.6408 24.3132 26.6667 24.3485 26.6667 24.4375H28.6667C28.6667 24.0087 28.5526 23.5753 28.3156 23.2199C28.0834 22.8715 27.6527 22.5 27.0417 22.5V24.5ZM26.6667 24.4375V25.0625H28.6667V24.4375H26.6667ZM26.6667 25.0625C26.6667 25.1514 26.6408 25.1868 26.6516 25.1707C26.6576 25.1616 26.7758 25 27.0417 25V27C27.6527 27 28.0834 26.6285 28.3156 26.2801C28.5526 25.9247 28.6667 25.4913 28.6667 25.0625H26.6667ZM16.2083 17.5H8.29167V19.5H16.2083V17.5ZM8.29167 17.5C8.55751 17.5 8.67573 17.6616 8.68178 17.6707C8.69251 17.6868 8.66667 17.6515 8.66667 17.5625H6.66667C6.66667 17.9913 6.78074 18.4247 7.01768 18.7801C7.24995 19.1285 7.68067 19.5 8.29167 19.5V17.5ZM8.66667 17.5625V16.9375H6.66667V17.5625H8.66667ZM8.66667 16.9375C8.66667 16.8485 8.69251 16.8132 8.68178 16.8293C8.67573 16.8384 8.55751 17 8.29167 17V15C7.68067 15 7.24995 15.3715 7.01768 15.7199C6.78074 16.0753 6.66667 16.5087 6.66667 16.9375H8.66667ZM8.29167 17H16.2083V15H8.29167V17ZM16.2083 17C15.9425 17 15.8243 16.8384 15.8182 16.8293C15.8075 16.8132 15.8333 16.8485 15.8333 16.9375H17.8333C17.8333 16.5087 17.7193 16.0753 17.4823 15.7199C17.2501 15.3715 16.8193 15 16.2083 15V17ZM15.8333 16.9375V17.5625H17.8333V16.9375H15.8333ZM15.8333 17.5625C15.8333 17.6515 15.8075 17.6868 15.8182 17.6707C15.8243 17.6616 15.9425 17.5 16.2083 17.5V19.5C16.8193 19.5 17.2501 19.1285 17.4823 18.7801C17.7193 18.4247 17.8333 17.9913 17.8333 17.5625H15.8333ZM27.0417 17.5H19.125V19.5H27.0417V17.5ZM19.125 17.5C19.3908 17.5 19.5091 17.6616 19.5151 17.6707C19.5258 17.6868 19.5 17.6515 19.5 17.5625H17.5C17.5 17.9913 17.6141 18.4247 17.851 18.7801C18.0833 19.1285 18.514 19.5 19.125 19.5V17.5ZM19.5 17.5625V16.9375H17.5V17.5625H19.5ZM19.5 16.9375C19.5 16.8485 19.5258 16.8132 19.5151 16.8293C19.5091 16.8384 19.3908 17 19.125 17V15C18.514 15 18.0833 15.3715 17.851 15.7199C17.6141 16.0753 17.5 16.5087 17.5 16.9375H19.5ZM19.125 17H27.0417V15H19.125V17ZM27.0417 17C26.7758 17 26.6576 16.8384 26.6516 16.8293C26.6408 16.8132 26.6667 16.8485 26.6667 16.9375H28.6667C28.6667 16.5087 28.5526 16.0753 28.3156 15.7199C28.0834 15.3715 27.6527 15 27.0417 15V17ZM26.6667 16.9375V17.5625H28.6667V16.9375H26.6667ZM26.6667 17.5625C26.6667 17.6515 26.6408 17.6868 26.6516 17.6707C26.6576 17.6616 26.7758 17.5 27.0417 17.5V19.5C27.6527 19.5 28.0834 19.1285 28.3156 18.7801C28.5526 18.4247 28.6667 17.9913 28.6667 17.5625H26.6667ZM27.0417 10H8.29167V12H27.0417V10ZM8.29167 10C8.55751 10 8.67573 10.1616 8.68178 10.1707C8.69251 10.1868 8.66667 10.1515 8.66667 10.0625H6.66667C6.66667 10.4913 6.78074 10.9247 7.01768 11.2801C7.24995 11.6285 7.68067 12 8.29167 12V10ZM8.66667 10.0625V6.9375H6.66667V10.0625H8.66667ZM8.66667 6.9375C8.66667 6.84855 8.69251 6.8132 8.68178 6.8293C8.67573 6.83838 8.55751 7 8.29167 7V5C7.68067 5 7.24995 5.3715 7.01768 5.7199C6.78074 6.07531 6.66667 6.50872 6.66667 6.9375H8.66667ZM8.29167 7H27.0417V5H8.29167V7ZM27.0417 7C26.7758 7 26.6576 6.83838 26.6516 6.8293C26.6408 6.8132 26.6667 6.84855 26.6667 6.9375H28.6667C28.6667 6.50872 28.5526 6.07531 28.3156 5.7199C28.0834 5.3715 27.6527 5 27.0417 5V7ZM26.6667 6.9375V10.0625H28.6667V6.9375H26.6667ZM26.6667 10.0625C26.6667 10.1515 26.6408 10.1868 26.6516 10.1707C26.6576 10.1616 26.7758 10 27.0417 10V12C27.6527 12 28.0834 11.6285 28.3156 11.2801C28.5526 10.9247 28.6667 10.4913 28.6667 10.0625H26.6667Z" fill="white" mask="url(#path-1-outside-1)"/>
</svg>
