<svg width="32" height="32" viewBox="0 0 32 32" fill="none" xmlns="http://www.w3.org/2000/svg">
<path d="M29.2411 1.00364L29.2049 0.504952L29.2047 0.504966L29.2411 1.00364ZM17.2117 4.72617L17.5209 5.11909L17.521 5.11908L17.2117 4.72617ZM18.0456 30.8776L18.3172 31.2974L18.3173 31.2974L18.0456 30.8776ZM29.4364 27.7356L29.4701 28.2345L29.4702 28.2345L29.4364 27.7356ZM31 3.05943L30.5 3.05921V3.05943H31ZM14.7883 4.72617L15.0977 4.33344L15.0975 4.33328L14.7883 4.72617ZM2.75941 1.00364L2.79591 0.504974L2.79561 0.504953L2.75941 1.00364ZM2.56357 27.7363L2.59726 27.2375L2.59699 27.2374L2.56357 27.7363ZM13.958 30.8803L14.2298 30.4606L14.2298 30.4606L13.958 30.8803ZM29.2047 0.504966C27.7603 0.610358 25.5974 0.855048 23.3467 1.4247C21.1024 1.99273 18.732 2.89339 16.9025 4.33326L17.521 5.11908C19.1936 3.8027 21.4108 2.94623 23.5921 2.39413C25.767 1.84364 27.8677 1.60518 29.2775 1.50231L29.2047 0.504966ZM16.9025 4.33324C16.5116 4.64084 16.3331 5.14195 16.3331 5.60808H17.3331C17.3331 5.36708 17.4285 5.19185 17.5209 5.11909L16.9025 4.33324ZM16.3331 5.60808V29.9743H17.3331V5.60808H16.3331ZM16.3331 29.9743C16.3331 30.5004 16.558 30.9727 16.9328 31.2516C17.3206 31.5403 17.8509 31.5992 18.3172 31.2974L17.774 30.4578C17.6857 30.515 17.6097 30.5089 17.5299 30.4495C17.4371 30.3804 17.3331 30.2216 17.3331 29.9743H16.3331ZM18.3173 31.2974C21.8036 29.0413 26.8991 28.4082 29.4701 28.2345L29.4027 27.2368C26.8205 27.4113 21.494 28.0505 17.774 30.4578L18.3173 31.2974ZM29.4702 28.2345C30.7001 28.1512 31.5 26.9343 31.5 25.6825H30.5C30.5 26.6045 29.9322 27.2009 29.4026 27.2368L29.4702 28.2345ZM31.5 25.6825V3.05943H30.5V25.6825H31.5ZM31.5 3.05965C31.5006 1.70098 30.5596 0.406616 29.2049 0.504953L29.2773 1.50233C29.8414 1.46138 30.5004 2.04603 30.5 3.05921L31.5 3.05965ZM15.0975 4.33328C13.2682 2.89339 10.8979 1.99289 8.65373 1.42494C6.40315 0.855382 4.24022 0.610698 2.79591 0.504975L2.7229 1.50231C4.13281 1.60551 6.23349 1.84397 8.40839 2.39438C10.5897 2.94641 12.8067 3.80271 14.479 5.11905L15.0975 4.33328ZM2.79561 0.504953C1.44094 0.406617 0.5 1.70095 0.5 3.05943H1.5C1.5 2.04606 2.15909 1.46138 2.72321 1.50233L2.79561 0.504953ZM0.5 3.05943V25.6832H1.5V3.05943H0.5ZM0.5 25.6832C0.5 26.9353 1.29977 28.1528 2.53015 28.2352L2.59699 27.2374C2.06796 27.202 1.5 26.6061 1.5 25.6832H0.5ZM2.52987 28.2352C5.10192 28.4089 10.2 29.0426 13.6863 31.3L14.2298 30.4606C10.5097 28.0519 5.18051 27.4119 2.59726 27.2375L2.52987 28.2352ZM13.6862 31.2999C14.152 31.6016 14.6816 31.5426 15.0687 31.2542C15.4426 30.9755 15.6669 30.5039 15.6669 29.9789H14.6669C14.6669 30.2254 14.5633 30.3836 14.4711 30.4523C14.3921 30.5112 14.3172 30.5172 14.2298 30.4606L13.6862 31.2999ZM15.6669 29.9789V5.59603H14.6669V29.9789H15.6669ZM15.6669 5.59603C15.6669 5.12317 15.485 4.63861 15.0977 4.33344L14.4788 5.11889C14.5759 5.19542 14.6669 5.36041 14.6669 5.59603H15.6669Z" fill="white"/>
</svg>
