<svg width="20" height="20" viewBox="0 0 20 20" fill="none" xmlns="http://www.w3.org/2000/svg">
<path d="M10 20C7.32891 20 4.8177 18.9598 2.92891 17.0711C1.0402 15.1823 0 12.6711 0 10C0 7.32891 1.0402 4.8177 2.92891 2.92891C4.8177 1.0402 7.32891 0 10 0C12.6711 0 15.1823 1.0402 17.0711 2.92891C18.9598 4.8177 20 7.32891 20 10C20 12.6711 18.9598 15.1823 17.0711 17.0711C15.1823 18.9598 12.6711 20 10 20Z" fill="#0E61C4"/>
<path d="M17.0711 2.92891C15.1823 1.0402 12.6711 0 10 0V20C12.6711 20 15.1823 18.9598 17.0711 17.0711C18.9598 15.1823 20 12.6711 20 10C20 7.32891 18.9598 4.8177 17.0711 2.92891Z" fill="#0C4EAD"/>
<path d="M10 1.17188C7.64191 1.17188 5.425 2.09016 3.75758 3.75758C2.09016 5.425 1.17188 7.64191 1.17188 10C1.17188 12.3581 2.09016 14.575 3.75758 16.2424C5.425 17.9098 7.64191 18.8281 10 18.8281C12.3581 18.8281 14.575 17.9098 16.2424 16.2424C17.9098 14.575 18.8281 12.3581 18.8281 10C18.8281 7.64191 17.9098 5.425 16.2424 3.75758C14.575 2.09016 12.3581 1.17188 10 1.17188Z" fill="#E4F7FF"/>
<path d="M16.2424 3.75758C14.575 2.09016 12.3581 1.17188 10 1.17188V18.8281C12.3581 18.8281 14.575 17.9098 16.2424 16.2424C17.9098 14.575 18.8281 12.3581 18.8281 10C18.8281 7.64191 17.9098 5.425 16.2424 3.75758Z" fill="#CBEDFD"/>
<path d="M10.5859 7.46094H9.41406V12.7344H10.5859V7.46094Z" fill="#FDDA40"/>
<path d="M10.5859 7.46094H10V12.7344H10.5859V7.46094Z" fill="#FDA916"/>
<path d="M10.5859 3.125H9.41406V5.46875H10.5859V3.125Z" fill="#7E88FD"/>
<path d="M6.05475 4.33878L7.22656 6.36841L8.24134 5.7825L7.06952 3.75287L6.05475 4.33878Z" fill="#7E88FD"/>
<path d="M3.75309 7.0703L5.78271 8.24213L6.36862 7.22734L4.339 6.05552L3.75309 7.0703Z" fill="#7E88FD"/>
<path d="M5.46875 9.41406H3.125V10.5859H5.46875V9.41406Z" fill="#7E88FD"/>
<path d="M16.875 9.41406H14.5312V10.5859H16.875V9.41406Z" fill="#6E76E3"/>
<path d="M13.6304 7.22681L14.2163 8.24161L16.2459 7.06976L15.66 6.05496L13.6304 7.22681Z" fill="#6E76E3"/>
<path d="M11.7587 5.78375L12.7734 6.36966L13.9452 4.34003L12.9305 3.75412L11.7587 5.78375Z" fill="#6E76E3"/>
<path d="M10 15.2734C9.24613 15.2734 8.63281 14.6601 8.63281 13.9062C8.63281 13.1524 9.24613 12.5391 10 12.5391C10.7539 12.5391 11.3672 13.1524 11.3672 13.9062C11.3672 14.6601 10.7539 15.2734 10 15.2734Z" fill="#0E61C4"/>
<path d="M10.5859 3.125H10V5.46875H10.5859V3.125Z" fill="#6E76E3"/>
<path d="M10 12.5391V15.2734C10.7539 15.2734 11.3672 14.6601 11.3672 13.9062C11.3672 13.1524 10.7539 12.5391 10 12.5391Z" fill="#0C4EAD"/>
</svg>
