<svg width="32" height="32" viewBox="0 0 32 32" fill="none" xmlns="http://www.w3.org/2000/svg">
<path d="M13.0958 24.1986L26.324 16.5798C26.5316 16.4608 26.6593 16.2393 26.6593 16.0008C26.6593 15.7623 26.5316 15.5409 26.324 15.4215L13.0958 7.80172C12.8882 7.6823 12.6327 7.6823 12.4251 7.80172C12.2175 7.92113 12.0897 8.14223 12.0897 8.38106V11.9284H0.670684C0.300466 11.9284 0 12.2281 0 12.5974V19.4023C0 19.7716 0.300466 20.0713 0.670684 20.0713H12.0901V23.6183C12.0901 23.8577 12.2178 24.0782 12.4254 24.1976C12.5294 24.2578 12.6451 24.2872 12.7608 24.2872C12.8765 24.2872 12.9922 24.2578 13.0958 24.1986Z" fill="white"/>
<path d="M27.0467 0H13.3818C13.0116 0 12.7111 0.299706 12.7111 0.668987V2.67595C12.7111 3.04523 13.0116 3.34494 13.3818 3.34494H27.0467C27.9293 3.34494 28.6466 4.06109 28.6466 4.94081V27.0592C28.6466 27.9392 27.9286 28.6551 27.0467 28.6551H13.3818C13.0116 28.6551 12.7111 28.9548 12.7111 29.3241V31.331C12.7111 31.7003 13.0116 32 13.3818 32H27.0467C29.7784 32 32 29.7833 32 27.0592V4.94114C32 2.21669 29.778 0 27.0467 0Z" fill="white"/>
</svg>
