<svg width="86" height="25" viewBox="0 0 86 25" fill="none" xmlns="http://www.w3.org/2000/svg">
<path fill-rule="evenodd" clip-rule="evenodd" d="M4.34861 10.6399C2.8262 10.379 1.39266 9.67019 1.39266 8.28187C1.39266 6.89374 2.68009 6.10925 3.77288 6.10925C4.8168 6.10925 5.58716 7.1601 5.58716 8.31201C5.58716 8.89693 6.01855 9.37113 6.55091 9.37113C7.08291 9.37113 7.51448 8.89693 7.51448 8.31201C7.51466 6.68038 6.02638 5.46246 3.79883 5.46246C2.26256 5.46246 0.0360826 6.43096 0.0360826 9.16861C0.0360826 11.9066 2.29082 12.3411 4.03062 12.7252C5.52441 13.0552 6.62361 13.8029 6.62361 15.1027C6.62361 16.5681 5.23842 17.4202 4.06226 17.4202C2.93889 17.4202 1.9291 16.2166 1.9291 15.1674C1.9291 14.6545 1.50126 14.1632 0.969794 14.1632C0.424463 14.1632 0 14.6567 0 15.2663C0 16.7525 1.63759 18.103 4.03453 18.103C5.68759 18.103 8.08381 17.0567 8.08381 14.1665C8.08363 11.5631 6.09659 10.9395 4.34861 10.6399H4.34861ZM13.2981 5.48163C15.6106 5.48163 17.4854 7.16932 17.4854 9.81535V13.789C17.4854 16.435 15.6106 18.1227 13.2981 18.1227C10.9856 18.1227 9.11086 16.4352 9.11086 13.789V9.81535C9.11086 7.16932 10.9856 5.48163 13.2981 5.48163V5.48163ZM15.553 14.4898V9.11459C15.553 7.21373 14.7974 6.11313 13.2982 6.11313C11.7993 6.11313 11.0435 7.21373 11.0435 9.11459V14.4898C11.0435 16.3245 11.8524 17.4913 13.2982 17.4913C14.7441 17.4913 15.553 16.3247 15.553 14.4898ZM26.0913 13.6343C25.5598 13.6343 25.1292 14.1028 25.1277 14.6812H25.1276L25.1277 14.6835L25.1276 14.6837H25.1277C25.1277 14.6981 25.1357 15.3908 25.1306 15.4775C25.0584 16.6349 24.0794 17.5504 22.8801 17.5504C21.4343 17.5504 20.6254 16.3835 20.6254 14.549V9.17376C20.6254 7.27281 21.381 6.17231 22.8801 6.17231C24.0796 6.17231 25.0584 7.08762 25.1306 8.24525C25.1357 8.33193 25.1277 9.02462 25.1277 9.039H25.1276L25.1277 9.0392L25.1276 9.04156H25.1277C25.1292 9.61999 25.5598 10.0883 26.0913 10.0883C26.6226 10.0883 27.0595 9.62018 27.0547 9.04196H27.0554C27.0554 9.04097 27.0551 9.03999 27.0549 9.039V9.03881C27.0551 7.03246 25.0845 5.54089 22.8801 5.54089C20.5676 5.54089 18.6929 7.22848 18.6929 9.87452V13.8482C18.6929 16.4945 20.5676 18.1818 22.8801 18.1818C25.0849 18.1818 27.0551 16.6404 27.0551 14.6839V14.6837C27.0554 14.6828 27.0556 14.6816 27.0556 14.6808H27.0549C27.0595 14.1026 26.6226 13.6343 26.0913 13.6343V13.6343ZM30.7466 5.59817C30.2976 5.94222 29.8119 6.16229 29.2959 6.27958C29.2014 6.30812 29.1495 6.41782 29.1497 6.52485L29.1712 17.6069C29.1714 17.7661 29.2879 17.8952 29.4315 17.8952H30.8202C30.9641 17.8952 31.0806 17.7659 31.0806 17.6067V5.84344C31.0806 5.6528 30.8824 5.50586 30.7466 5.59817V5.59817ZM31.9646 0.642772C31.8354 0.505419 30.3495 0.387687 29.5998 2.48656C29.3541 3.17399 28.8981 3.91762 28.4323 4.10358C28.3251 4.14639 28.2575 4.26345 28.2789 4.38743L28.2807 4.39836C30.2375 4.21039 31.8899 2.70151 32.0193 1.09162C32.0251 1.01826 32.0567 0.764517 31.9646 0.642772ZM37.4404 5.48163C39.7529 5.48163 41.6277 7.16932 41.6277 9.81535V13.789C41.6277 16.435 39.7529 18.1227 37.4404 18.1227C35.1279 18.1227 33.2532 16.4352 33.2532 13.789V9.81535C33.2532 7.16932 35.1279 5.48163 37.4404 5.48163V5.48163ZM39.6953 14.4898V9.11459C39.6953 7.21373 38.9397 6.11313 37.4406 6.11313C35.9416 6.11313 35.1858 7.21373 35.1858 9.11459V14.4898C35.1858 16.3245 35.9947 17.4913 37.4406 17.4913C38.8864 17.4913 39.6953 16.3247 39.6953 14.4898ZM50.2176 24.6459L50.0775 24.0409C50.0557 23.9467 49.9849 23.8974 49.9188 23.9278C49.6734 24.0392 49.4235 24.1108 49.1956 24.1166C47.8003 24.1509 46.673 22.69 46.673 20.9462L46.6779 9.8538H48.6147C48.6839 9.8538 48.7399 9.77356 48.7399 9.67467V9.14482C48.7399 9.04592 48.6839 8.96597 48.6147 8.96597H46.6757L46.6709 1.14438C46.6709 0.874439 46.4533 0.667178 46.3046 0.797552C45.812 1.28395 45.2794 1.59539 44.7135 1.76115C44.6098 1.80154 44.5529 1.95671 44.5531 2.10798L44.5681 8.96597H42.7812C42.712 8.96597 42.656 9.04592 42.656 9.14482V9.67467C42.656 9.77356 42.712 9.85379 42.7814 9.85379H44.5582L44.5533 19.702C44.5533 22.6279 46.6094 25 49.1455 25C49.4808 25 49.8073 24.9579 50.1219 24.8788C50.1966 24.8599 50.2414 24.749 50.2176 24.6459V24.6459ZM56.1217 6.01255C56.2029 6.0509 56.2257 6.16105 56.1673 6.23285C56.0464 6.38224 55.9348 6.53699 55.8328 6.69686C55.7938 6.75818 55.7179 6.77736 55.6598 6.737C55.2641 6.46274 54.6913 6.20386 54.221 6.19494C52.9487 6.17064 51.9207 7.21461 51.9207 8.44811V17.6454C51.9207 17.7832 51.8053 17.8951 51.663 17.8951H50.2458C50.1033 17.8951 49.9881 17.7834 49.9881 17.6454V9.32797C49.9881 7.25854 51.8628 5.57507 54.1753 5.57507C54.8784 5.57507 55.5403 5.73785 56.1217 6.01255V6.01255ZM60.4952 6.10898C59.4513 6.10898 58.6806 7.16945 58.6806 8.32111C58.6806 8.90597 58.2491 9.38024 57.717 9.38024C57.1849 9.38024 56.7534 8.91913 56.7534 8.33427C56.7534 6.70254 58.2419 5.46213 60.4693 5.46213C62.7818 5.46213 64.4282 7.1583 64.4284 9.25025L64.427 15.6148C64.427 16.4722 64.9941 17.1861 65.7254 17.3277C65.7914 17.3404 65.8388 17.4056 65.8388 17.48V17.7514C65.8388 17.8323 65.7787 17.8992 65.7057 17.8961C64.8641 17.8598 64.1017 17.4796 63.531 16.882C62.7643 17.7148 61.5761 18.103 60.2409 18.103C57.9284 18.103 56.0537 17.0096 56.0537 14.9174H56.0535C56.0535 13.3958 57.0569 12.6308 57.6591 12.2758C58.3252 11.8831 59.3477 11.5382 60.1066 11.1814C61.3349 10.6039 62.4957 10.0581 62.4957 8.94789V8.30327C62.4957 7.08182 61.7415 6.10898 60.4952 6.10898H60.4952ZM62.4959 15.1353V10.6368C61.8676 11.0344 61.1386 11.3967 60.3854 11.751C59.1518 12.3312 57.9864 13.5455 57.9864 14.9177C57.9864 16.5206 58.7673 17.4718 60.2411 17.4718C61.5634 17.4718 62.4959 16.5104 62.4959 15.1353ZM74.0562 13.6343C73.5247 13.6343 73.094 14.1028 73.0926 14.6812H73.0924L73.0926 14.6835L73.0924 14.6837H73.0926C73.0926 14.6981 73.1006 15.3908 73.0954 15.4775C73.0233 16.6349 72.0442 17.5504 70.845 17.5504C69.3991 17.5504 68.5902 16.3835 68.5902 14.549V9.17376C68.5902 7.27281 69.3458 6.17231 70.845 6.17231C72.0444 6.17231 73.0233 7.08762 73.0954 8.24525C73.1006 8.33193 73.0926 9.02462 73.0926 9.039H73.0924L73.0926 9.0392L73.0924 9.04156H73.0926C73.094 9.61999 73.5247 10.0883 74.0562 10.0883C74.5874 10.0883 75.0244 9.62018 75.0196 9.04196H75.0203C75.0203 9.04097 75.0199 9.03999 75.0197 9.039V9.03881C75.0199 7.03246 73.0494 5.54089 70.845 5.54089C68.5324 5.54089 66.6577 7.22848 66.6577 9.87452V13.8482C66.6577 16.4945 68.5324 18.1818 70.845 18.1818C73.0497 18.1818 75.0199 16.6404 75.0199 14.6839V14.6837C75.0203 14.6828 75.0204 14.6816 75.0204 14.6808H75.0197C75.0244 14.1026 74.5874 13.6343 74.0562 13.6343V13.6343ZM81.6937 9.62014C81.9981 9.45387 82.3405 9.44235 82.7666 9.4367C84.9741 9.40779 85.4399 7.8666 85.3643 7.68859C85.2886 7.5534 85.0446 7.49711 84.975 7.47755C83.6097 7.0935 81.9645 8.04482 80.8286 9.54276C80.6158 9.80314 80.4167 10.1224 80.2376 10.4076C79.957 10.8547 79.692 11.2767 79.2862 11.4908C79.1196 11.5788 78.9187 11.6197 78.6542 11.6197H78.461V0.266702C78.461 0.0806553 78.246 -0.0623576 78.0988 0.0276229C77.6123 0.362986 77.0858 0.577505 76.5265 0.691829C76.424 0.719649 76.3677 0.826582 76.3679 0.930908L76.3913 17.9008C76.3915 18.0559 76.5178 18.1818 76.6735 18.1818H78.1788C78.3347 18.1818 78.461 18.0559 78.461 17.9005V12.2348H78.8032C80.2736 12.2348 81.3537 13.0544 81.6693 14.3228C81.9924 15.6219 82.0788 16.2061 82.5802 17.0901C82.8152 17.5293 83.5351 18.1798 83.918 18.1798H85.7836C85.9031 18.1798 86 18.0833 86 17.9642V17.7306C86 17.638 85.9398 17.5582 85.8525 17.5265C84.6416 17.0883 84.2375 16.0727 83.7994 14.0444C83.4378 12.3691 82.086 11.6427 80.1188 11.6164C80.3711 11.3532 80.568 11.0405 80.7606 10.7338C81.0369 10.2937 81.2981 9.83944 81.6937 9.62014H81.6937Z" fill="white"/>
</svg>
