<svg width="20" height="25" viewBox="0 0 20 25" fill="none" xmlns="http://www.w3.org/2000/svg">
<g clip-path="url(#clip0)">
<path d="M15.9999 17.3559C14.8145 17.3559 14.2026 17.8938 13.6629 18.3681C13.1888 18.7847 12.8143 19.1137 11.9997 19.1137C11.1852 19.1137 10.8107 18.7847 10.3368 18.3681C9.79706 17.8936 9.18518 17.3559 7.99973 17.3559C6.81442 17.3559 6.20255 17.8938 5.66284 18.3681C5.1889 18.7847 4.81445 19.1137 3.99994 19.1137C3.18542 19.1137 2.81097 18.7847 2.33704 18.3681C1.79718 17.8938 1.1853 17.3559 0 17.3559V18.8207C0.814667 18.8207 1.18896 19.1498 1.6629 19.5665C2.20276 20.0409 2.81448 20.5786 3.99994 20.5786C5.18524 20.5786 5.79712 20.0409 6.33682 19.5665C6.81076 19.1498 7.18521 18.8207 7.99973 18.8207C8.81439 18.8207 9.18869 19.1498 9.66278 19.5665C10.2025 20.0409 10.8144 20.5786 11.9997 20.5786C13.1851 20.5786 13.797 20.0409 14.3369 19.5665C14.8108 19.1499 15.1852 18.8207 15.9999 18.8207C16.8146 18.8207 17.1889 19.1498 17.663 19.5665C18.2027 20.0409 18.8145 20.5786 20 20.5786V19.1137C19.1853 19.1137 18.8109 18.7847 18.3369 18.3681C17.7971 17.8938 17.1852 17.3559 15.9999 17.3559V17.3559Z" fill="#60A2D7"/>
<path d="M15.9999 8.71509C14.8145 8.71509 14.2026 9.25277 13.6629 9.72713C13.1888 10.1437 12.8143 10.4729 11.9997 10.4729C11.1852 10.4729 10.8107 10.1437 10.3368 9.72713C9.79706 9.25277 9.18518 8.71509 7.99973 8.71509C6.81442 8.71509 6.20255 9.25277 5.66284 9.72713C5.1889 10.1437 4.81445 10.4729 3.99994 10.4729C3.18542 10.4729 2.81097 10.1437 2.33704 9.72713C1.79718 9.25277 1.1853 8.71509 0 8.71509V10.1799C0.814667 10.1799 1.18896 10.5089 1.6629 10.9255C2.20276 11.4001 2.81448 11.9377 3.99994 11.9377C5.18524 11.9377 5.79712 11.3999 6.33682 10.9255C6.81076 10.5089 7.18521 10.1799 7.99973 10.1799C8.81439 10.1799 9.18869 10.5089 9.66278 10.9255C10.2025 11.4001 10.8144 11.9377 11.9997 11.9377C13.1851 11.9377 13.797 11.3999 14.3369 10.9255C14.8108 10.5089 15.1852 10.1799 15.9999 10.1799C16.8146 10.1799 17.1889 10.5089 17.663 10.9255C18.2027 11.4001 18.8145 11.9377 20 11.9377V10.4729C19.1853 10.4729 18.8109 10.1437 18.3369 9.72713C17.7971 9.25277 17.1852 8.71509 15.9999 8.71509V8.71509Z" fill="#60A2D7"/>
<path d="M15.9999 13.0356C14.8145 13.0356 14.2026 13.5733 13.6629 14.0476C13.1888 14.4642 12.8143 14.7934 11.9997 14.7934C11.1852 14.7934 10.8107 14.4642 10.3368 14.0476C9.79706 13.5733 9.18518 13.0356 7.99973 13.0356C6.81442 13.0356 6.20255 13.5733 5.66284 14.0476C5.1889 14.4642 4.81445 14.7934 3.99994 14.7934C3.18542 14.7934 2.81097 14.4642 2.33704 14.0476C1.79718 13.5733 1.1853 13.0356 0 13.0356V14.5004C0.814667 14.5004 1.18896 14.8294 1.6629 15.246C2.20276 15.7204 2.81448 16.2582 3.99994 16.2582C5.18524 16.2582 5.79712 15.7204 6.33682 15.246C6.81076 14.8294 7.18521 14.5004 7.99973 14.5004C8.81439 14.5004 9.18869 14.8294 9.66278 15.246C10.2025 15.7204 10.8144 16.2582 11.9997 16.2582C13.1851 16.2582 13.797 15.7204 14.3369 15.246C14.8108 14.8294 15.1852 14.5004 15.9999 14.5004C16.8146 14.5004 17.1889 14.8294 17.663 15.246C18.2027 15.7204 18.8145 16.2582 20 16.2582V14.7934C19.1853 14.7934 18.8109 14.4642 18.3369 14.0476C17.7971 13.5733 17.1852 13.0356 15.9999 13.0356V13.0356Z" fill="#60A2D7"/>
<path d="M18.3369 5.40676C17.7971 4.93221 17.1852 4.39453 15.9999 4.39453C14.8145 4.39453 14.2026 4.93221 13.6629 5.40676C13.1888 5.82333 12.8143 6.15234 11.9997 6.15234C11.1852 6.15234 10.8107 5.82333 10.3368 5.40676C9.79706 4.93221 9.18518 4.39453 7.99973 4.39453C6.81442 4.39453 6.20255 4.93221 5.66284 5.40676C5.1889 5.82333 4.81445 6.15234 3.99994 6.15234C3.18542 6.15234 2.81097 5.82333 2.33704 5.40676C1.79718 4.93221 1.1853 4.39453 0 4.39453V5.85938C0.814667 5.85938 1.18896 6.18839 1.6629 6.60496C2.20276 7.07951 2.81448 7.61719 3.99994 7.61719C5.18524 7.61719 5.79712 7.07951 6.33682 6.60496C6.81076 6.18839 7.18521 5.85938 7.99973 5.85938C8.81439 5.85938 9.18869 6.18839 9.66278 6.60496C10.2025 7.07951 10.8144 7.61719 11.9997 7.61719C13.1851 7.61719 13.797 7.07951 14.3369 6.60496C14.8108 6.18839 15.1852 5.85938 15.9999 5.85938C16.8146 5.85938 17.1889 6.18839 17.663 6.60496C18.2027 7.07951 18.8145 7.61719 20 7.61719V6.15234C19.1853 6.15234 18.8109 5.82333 18.3369 5.40676V5.40676Z" fill="#60A2D7"/>
</g>
<defs>
<clipPath id="clip0">
<rect width="20" height="25" fill="white"/>
</clipPath>
</defs>
</svg>
