<svg width="30" height="30" viewBox="0 0 30 30" fill="none" xmlns="http://www.w3.org/2000/svg">
<path fill-rule="evenodd" clip-rule="evenodd" d="M17.1434 3.29778C17.1482 3.31684 17.1523 3.33608 17.1557 3.3556C17.2185 3.71572 17.03 4.06984 16.7347 4.14636C16.4395 4.22287 16.1492 3.99305 16.0864 3.63294L15.4825 0.863274C15.4777 0.844215 15.4736 0.824971 15.4702 0.80545C15.4074 0.445339 15.5959 0.0912122 15.8911 0.0146966C16.1864 -0.0618191 16.4766 0.168004 16.5394 0.528116L17.1434 3.29778ZM13.1031 5.70654L11.4513 3.66981C11.2566 3.38584 10.91 3.34828 10.6772 3.58583C10.4444 3.82339 10.4135 4.24612 10.6083 4.53008C10.6278 4.55844 10.6492 4.58487 10.6723 4.60899L12.324 6.64573C12.5545 6.8866 12.9014 6.85391 13.0989 6.5728C13.2736 6.3241 13.2754 5.95773 13.1031 5.70654ZM27.1075 3.77522C26.9127 3.49125 26.5661 3.45369 26.3333 3.69124C26.3101 3.715 26.2884 3.74106 26.2686 3.76923L24.5988 5.78386C24.366 6.02142 24.3352 6.44414 24.5299 6.7281C24.7247 7.01206 25.0713 7.04963 25.3041 6.81207C25.3274 6.78832 25.349 6.76226 25.3688 6.73409L27.0386 4.71946C27.2714 4.4819 27.3023 4.05918 27.1075 3.77522ZM24.6653 17.6175C24.5626 17.4923 24.4559 17.3695 24.3452 17.2492L24.4358 17.0503C24.5482 16.7983 24.649 16.5388 24.7377 16.2732C26.024 12.3549 24.4625 7.90655 21.25 6.33766L21.2319 6.32891C18.3277 4.91692 15.0144 6.33112 13.4655 9.64367C9.67963 8.35404 5.75344 11.0519 4.69604 15.6696C4.52007 16.438 4.43182 17.2323 4.43379 18.03V18.3762C1.80543 18.6036 -0.174234 21.3867 0.0121524 24.5925C0.188272 27.6225 2.24547 29.9774 4.73575 30H4.75085H20.4529C23.7366 30.0069 26.4031 26.7658 26.4089 22.7606C26.4116 20.8316 25.7841 18.9808 24.6653 17.6175ZM17.0075 7.57379C18.2321 6.9798 19.5967 6.9798 20.8213 7.57379C23.4761 8.86571 24.7718 12.5357 23.7171 15.776C23.6407 15.9991 23.554 16.2167 23.4574 16.4279V16.4868C21.9415 15.4119 20.1141 15.2071 18.463 15.927C18.1582 14.444 17.5373 13.0857 16.6633 11.9898C17.2739 10.607 18.6343 9.99697 19.8339 10.5681C20.1206 10.6831 20.4295 10.4928 20.5238 10.1431C20.6103 9.8223 20.4864 9.47324 20.2355 9.33061C18.6068 8.53461 16.7446 9.27619 15.8147 11.0911C15.4026 10.7132 14.9582 10.3909 14.4891 10.1298C15.0789 8.967 15.9628 8.0698 17.0075 7.57379ZM21.6 28.4974C21.2262 28.6063 20.8432 28.6607 20.4589 28.6594H4.75689C2.72732 28.6572 1.08351 26.6486 1.08533 24.1731C1.08623 22.9867 1.47267 21.8492 2.16001 21.0097L2.15397 21.0134C2.84222 20.1725 3.77672 19.7006 4.75085 19.7022H4.88371H5.00147C5.30261 19.7273 5.56343 19.4497 5.58389 19.0824C5.58713 19.0249 5.58419 18.967 5.5752 18.9104C5.56312 18.7826 5.55308 18.644 5.54501 18.4942V18.0264C5.58977 13.9708 8.32155 10.7273 11.6467 10.7819C14.5684 10.8299 17.0401 13.4295 17.5088 16.9473C17.552 17.3116 17.8292 17.5643 18.128 17.5115C18.1857 17.5013 18.2417 17.4799 18.2939 17.4482C18.6282 17.2442 18.9808 17.0885 19.3447 16.9841C21.9513 16.2245 24.5692 18.1861 25.192 21.3654C25.8148 24.5446 24.2066 27.7377 21.6 28.4974ZM29.3396 9.63631C29.6164 9.56458 29.8923 9.76218 29.9756 10.0919C30.0647 10.4437 29.9029 10.8169 29.6144 10.9254L27.3436 11.662L27.3419 11.6625C27.0495 11.7543 26.7516 11.5397 26.6763 11.1832C26.6018 10.8273 26.7773 10.465 27.0689 10.3729L29.3396 9.63631ZM29.5905 16.6084L27.3257 15.8534C27.0347 15.7517 26.7312 15.957 26.6478 16.3119C26.5644 16.6669 26.7327 17.037 27.0238 17.1388L29.2885 17.8938C29.5795 17.9955 29.883 17.7902 29.9664 17.4353C30.0497 17.0803 29.8815 16.7102 29.5905 16.6084ZM21.1957 0.539144C21.2792 0.184189 21.5826 -0.0211411 21.8737 0.0806034C22.1647 0.182348 22.333 0.552495 22.2496 0.90745L21.6457 3.66974C21.6445 3.67527 21.6433 3.68079 21.6419 3.68623C21.5567 4.03943 21.2528 4.24145 20.9632 4.13749C20.9567 4.13547 20.9503 4.13326 20.944 4.13095C20.6548 4.02562 20.4903 3.65418 20.5767 3.30144L21.1957 0.539144Z" fill="white"/>
</svg>
